# xmcd CD database file
#
# Track frame offsets:
#	150
#	10655
#	22662
#	38548
#	53560
#	65001
#	80074
#	92496
#	116365
#	126638
#	142920
#	162575
#	218906
#	264851
#
# Disc length: 3821 seconds
#
# Revision: 2
# Processed by: cddbd v1.4PL0 Copyright (c) Steve Scherf et al.
# Submitted via: CDex 1.50beta8
#
DISCID=b00eeb0e
DTITLE=Larry Johnson - Blues for Harlem
DYEAR=1900
DGENRE=Blues
TTITLE0=Mr. Johnson Blues
TTITLE1=Mean Ol' Frisco
TTITLE2=Banks Of The River
TTITLE3=Trouble In Mind
TTITLE4=Sally Where You Get Your Liquor From
TTITLE5=Blues For Harlem
TTITLE6=That's Alright Mama
TTITLE7=Hear The Angels Singing
TTITLE8=Jesus Loves Me
TTITLE9=Don't You Leave M eHere
TTITLE10=My Story Should Be Told
TTITLE11=The Reverend And Me - A Tribute
TTITLE12=Interview With Larry Johnson
TTITLE13=Things I Used To Do
EXTD=
EXTT0=
EXTT1=
EXTT2=
EXTT3=
EXTT4=
EXTT5=
EXTT6=
EXTT7=
EXTT8=
EXTT9=
EXTT10=
EXTT11=
EXTT12=
EXTT13=
PLAYORDER=
